<svg width="340" height="340" viewBox="0 0 340 340" fill="none" xmlns="http://www.w3.org/2000/svg">
    <path d="M205.402 51.1799L219.304 37.2767C242.339 14.2411 279.688 14.2411 302.723 37.2767C325.759 60.3122 325.759 97.6602 302.723 120.696L288.82 134.599M205.402 51.1799C205.402 51.1799 207.139 80.7241 233.207 106.793C259.276 132.861 288.82 134.599 288.82 134.599M205.402 51.1799L170 86.5807M288.82 134.599L209.911 213.509L163.42 260L161.002 262.418C152.344 271.074 148.016 275.403 143.243 279.126C137.612 283.518 131.52 287.283 125.075 290.355C119.611 292.959 113.803 294.894 102.188 298.766M102.188 298.766L40.9376 319.184C35.2217 321.089 28.9199 319.601 24.6594 315.341C20.399 311.079 18.9114 304.778 20.8167 299.063L41.2334 237.812M102.188 298.766L69.5 268L41.2334 237.812M41.2334 237.812C45.1052 226.197 47.041 220.389 49.6451 214.925C52.7171 208.479 56.482 202.388 60.8735 196.757C64.5962 191.984 68.9249 187.656 77.5824 178.998L117.5 139.081" stroke="#ADADAD" stroke-width="40" stroke-linecap="round" />
</svg>