<svg width="37" height="28" viewBox="0 0 37 28" fill="none" xmlns="http://www.w3.org/2000/svg">
    <path d="M16 14.004L5.56406 14.004M5.22557 15.2456L3.25263 19.92C2.17207 22.4801 1.63179 23.7602 2.01952 24.5484C2.35621 25.2331 3.07939 25.752 3.97174 25.9496C4.99931 26.177 6.55133 25.6231 9.65538 24.5153L29.5552 17.4126C32.585 16.3311 34.0999 15.7905 34.568 15.0393C34.9749 14.3868 34.9749 13.621 34.568 12.9684C34.0999 12.2174 32.585 11.6767 29.5552 10.5953L9.62105 3.48042C6.52635 2.37587 4.97902 1.82359 3.95248 2.05015C3.06097 2.2469 2.33788 2.76451 2 3.44781C1.61093 4.23461 2.14544 5.51191 3.21448 8.06651L5.2294 12.8815C5.413 13.3203 5.50481 13.5397 5.54104 13.764C5.57321 13.9632 5.57287 14.1647 5.54008 14.3637C5.50311 14.588 5.4106 14.8071 5.22557 15.2456Z" stroke="white" stroke-width="2.5" stroke-linecap="round" stroke-linejoin="round" />
</svg>